# xmcd
#
# Track frame offsets: 
#        150
#        14499
#        28426
#        41628
#        55666
#        70118
#        88030
#        100525
#        117893
#        132062
#        149629
#        162102
#
# Disc length: 2381 seconds
#
# Revision: 0
# Processed by: cddbd v1.5.2PL0 Copyright (c) Steve Scherf et al.
# Submitted via: ExactAudioCopy v1.1
#
DISCID=a0094b0c
DTITLE=Highrise Lonesome - One Way Street
DYEAR=2010
DGENRE=Bluegrass
TTITLE0=Highway of Love
TTITLE1=Rocky Road Blues
TTITLE2=Gone So Soon
TTITLE3=Use It or Lose It
TTITLE4=Dragonfly
TTITLE5=The Salish Sea
TTITLE6=Dagger In My Heart
TTITLE7=Underhill Road
TTITLE8=Wrong Turn
TTITLE9=Just Someone I used To Know
TTITLE10=Big Black Eye
TTITLE11=Walk On, Brother
EXTD=
EXTT0=
EXTT1=
EXTT2=
EXTT3=
EXTT4=
EXTT5=
EXTT6=
EXTT7=
EXTT8=
EXTT9=
EXTT10=
EXTT11=
PLAYORDER=
